<svg version="1" xmlns="http://www.w3.org/2000/svg" width="682.667" height="682.667" viewBox="0 0 512.000000 512.000000"><path d="M7 14.2C14.7 37 27 73.1 38 105c22 64.1 25.3 73.7 27 79 1 3 6.6 19.4 12.5 36.5 5.9 17 13.7 40 17.5 51 15.1 44.3 21.3 62.3 31 90.5 5.5 16.2 11.6 34 13.5 39.5 1.8 5.5 8.6 25.3 15 44s13.9 40.7 16.7 49c2.8 8.2 5.4 15.4 5.8 15.8.4.4 2.4-4.3 4.5-10.5s4.3-12.7 5-14.3c.7-1.7 3.1-8.4 5.3-15 2.2-6.6 6.2-17.9 8.7-25 2.6-7.2 5.9-16.8 7.5-21.5 1.6-4.7 5.4-15.7 8.5-24.5 3.2-8.8 6.8-19.2 8.1-23.1l2.5-7.1-6-17.9c-3.2-9.8-13.6-41.5-23.1-70.4-9.5-28.9-19.4-59-22-67-30.2-91.7-68.6-208.6-69.5-211.7l-.6-2.2L54 0H2.1L7 14.2zM405.2 2.9c-.6 1.4-1.6 4.2-2.2 6.1-.6 1.9-3.6 10.5-6.6 19-3 8.5-7.1 20.2-9 26-1.9 5.8-3.9 11.4-4.4 12.5-.5 1.1-6.3 17.7-13 37-15 43.3-19.4 55.8-23 66-3.4 9.8-10.4 29.8-20.5 59-4.2 12.1-10.1 29-13.2 37.5-3 8.5-5.6 15.9-5.7 16.5-.1.5-.7 2.3-1.3 4-.6 1.6-7.1 20.1-14.3 41-7.3 20.9-14.2 40.9-15.5 44.5-1.3 3.6-6.3 17.7-11.1 31.5-9.7 28-18.8 54.1-29.4 84.5-4 11.3-7.4 21.3-7.7 22.2-.5 1.6 3.1 1.7 52.1 1.8H333l1.1-2.7c1.4-3.6 13.8-39.5 19-54.8 2.2-6.6 4.3-12.7 4.6-13.5.3-.8.7-1.7.8-2 .1-.3.4-1.2.8-2 .3-.8 3.8-10.9 7.7-22.5 3.9-11.6 8.9-26 11-32 2.1-6.1 6.4-18.4 9.5-27.5 3.1-9.1 7-20.3 8.6-25 1.7-4.7 4.3-12.3 5.9-17 1.6-4.7 6.1-17.7 10-29 3.9-11.3 8.4-24.3 10-29 1.6-4.7 6.1-17.7 10-29 3.9-11.3 10-28.8 13.5-39s10.2-29.8 15-43.5c4.8-13.8 9.3-26.8 10-29 .7-2.2 3.3-9.9 5.8-17 2.5-7.2 9.1-26.1 14.5-42 5.5-16 11.9-34.3 14.1-40.8 2.3-6.5 4.1-12.4 4.1-13.1 0-1.1-9.1-1.3-51.4-1.4h-51.4l-1 2.7z"/></svg>